<?xml version="1.0" standalone="no"?>
<!DOCTYPE svg PUBLIC "-//W3C//DTD SVG 20010904//EN"
 "http://www.w3.org/TR/2001/REC-SVG-20010904/DTD/svg10.dtd">
<svg version="1.0" xmlns="http://www.w3.org/2000/svg"
 width="716.000000pt" height="163.000000pt" viewBox="0 0 716.000000 163.000000"
 preserveAspectRatio="xMidYMid meet">

<g transform="translate(0.000000,163.000000) scale(0.100000,-0.100000)"
fill="#000000" stroke="none">
<path d="M610 1189 c-209 -37 -341 -196 -357 -430 -6 -85 -5 -87 20 -104 21
-13 149 -43 192 -45 6 0 10 45 11 113 2 267 73 387 227 387 44 0 66 -5 89 -22
35 -25 67 -89 68 -136 0 -35 -5 -34 72 -18 41 9 87 53 94 90 11 64 -35 118
-128 150 -59 20 -215 28 -288 15z"/>
<path d="M5830 1155 c0 -35 0 -35 45 -35 32 0 51 -6 65 -20 19 -19 20 -33 20
-323 0 -335 7 -393 59 -457 67 -84 154 -115 321 -114 169 1 252 38 306 137
l29 52 3 326 3 326 -32 7 c-75 15 -69 42 -69 -306 0 -284 -2 -317 -19 -354
-23 -51 -65 -81 -130 -94 -61 -11 -145 2 -180 28 -75 55 -83 106 -79 468 l3
284 -67 0 c-54 0 -68 3 -68 15 0 12 14 15 69 15 37 0 96 3 130 6 l61 7 0 33 0
34 -235 0 -235 0 0 -35z"/>
<path d="M6460 1154 l0 -35 58 6 c109 12 232 35 265 49 29 13 17 14 -145 15
l-178 1 0 -36z"/>
<path d="M5484 1093 c-31 -101 -76 -152 -156 -174 -33 -8 -38 -14 -38 -39 0
-29 1 -30 49 -30 l49 0 4 -257 c3 -254 3 -259 28 -302 38 -69 77 -86 185 -85
50 0 109 6 133 13 41 11 42 13 42 54 l0 43 -63 -4 c-51 -3 -67 -1 -87 16 l-25
20 -3 251 -3 251 86 0 85 0 0 45 0 45 -85 0 -85 0 0 85 0 85 -55 0 c-44 0 -57
-4 -61 -17z"/>
<path d="M1417 950 c-120 -22 -203 -95 -238 -210 -18 -61 -21 -89 -17 -183 5
-120 22 -176 74 -244 76 -100 257 -137 427 -86 66 19 146 98 171 168 23 64 32
232 17 306 -24 114 -109 210 -209 239 -53 15 -169 20 -225 10z m172 -106 c47
-39 64 -112 64 -264 0 -151 -18 -226 -63 -263 -65 -55 -145 -38 -188 40 -28
51 -45 185 -36 288 13 163 53 225 144 225 38 0 55 -6 79 -26z"/>
<path d="M2405 951 c-43 -11 -83 -39 -110 -79 -25 -37 -26 -36 -40 36 l-7 32
-139 0 -139 0 0 -35 c0 -31 3 -35 25 -35 14 0 37 -11 50 -25 l25 -24 0 -235
c0 -151 -4 -244 -11 -259 -12 -26 -47 -47 -79 -47 -16 0 -20 -7 -20 -35 l0
-35 210 0 210 0 0 34 c0 31 -3 34 -40 40 -66 10 -73 34 -68 255 3 164 6 192
25 234 42 92 144 99 188 12 18 -36 20 -64 23 -307 l4 -268 149 0 149 0 0 35
c0 30 -3 35 -24 35 -13 0 -34 9 -47 19 -24 19 -24 22 -29 258 -6 258 -12 287
-68 346 -44 46 -152 68 -237 48z"/>
<path d="M3315 951 c-43 -11 -83 -39 -110 -79 -25 -37 -26 -36 -40 36 l-7 32
-139 0 -139 0 0 -35 c0 -31 3 -35 25 -35 14 0 37 -11 50 -25 l25 -24 0 -235
c0 -151 -4 -244 -11 -259 -12 -26 -47 -47 -79 -47 -16 0 -20 -7 -20 -35 l0
-35 210 0 210 0 0 34 c0 31 -3 34 -40 40 -66 10 -73 34 -68 255 3 164 6 192
25 234 42 92 144 99 188 12 18 -36 20 -64 23 -307 l4 -268 149 0 149 0 0 35
c0 30 -3 35 -24 35 -13 0 -34 9 -47 19 -24 19 -24 22 -29 258 -6 258 -12 287
-68 346 -44 46 -152 68 -237 48z"/>
<path d="M4065 947 c-101 -27 -156 -73 -202 -172 -26 -56 -28 -68 -28 -195 0
-128 2 -138 29 -198 47 -102 122 -154 250 -174 128 -20 272 17 313 78 20 31
22 86 4 107 -10 13 -18 10 -56 -28 -89 -89 -230 -87 -293 5 -23 34 -36 75 -46
148 l-6 42 226 0 226 0 -4 93 c-8 195 -100 290 -293 302 -40 3 -91 -1 -120 -8z
m163 -99 c28 -30 38 -60 47 -135 l7 -63 -121 0 -121 0 0 38 c0 101 57 182 127
182 28 0 46 -7 61 -22z"/>
<path d="M4851 949 c-103 -20 -163 -69 -210 -169 -21 -47 -26 -73 -29 -178 -4
-108 -2 -131 19 -195 29 -91 88 -155 170 -183 72 -25 214 -25 285 -1 89 31
144 110 110 161 l-15 24 -43 -43 c-95 -94 -241 -86 -291 17 -27 54 -39 160
-32 262 11 152 43 219 111 232 61 11 94 -27 108 -128 8 -53 6 -52 75 -37 69
14 105 57 98 112 -3 21 -14 48 -24 59 -55 61 -206 92 -332 67z"/>
<path d="M425 583 c-16 -2 -58 -10 -92 -19 -75 -19 -77 -28 -34 -120 51 -108
126 -175 242 -215 92 -32 269 -32 351 0 98 38 154 118 129 184 l-11 27 -34
-38 c-51 -57 -117 -86 -204 -90 -169 -9 -256 64 -288 241 -3 20 -11 36 -18 36
-6 -1 -24 -4 -41 -6z"/>
</g>
</svg>
