<?xml version="1.0" encoding="UTF-8"?>
<!DOCTYPE svg PUBLIC "-//W3C//DTD SVG 1.1//EN" "http://www.w3.org/Graphics/SVG/1.1/DTD/svg11.dtd">
<svg xmlns="http://www.w3.org/2000/svg" version="1.1" width="225px" height="225px" style="shape-rendering:geometricPrecision; text-rendering:geometricPrecision; image-rendering:optimizeQuality; fill-rule:evenodd; clip-rule:evenodd" xmlns:xlink="http://www.w3.org/1999/xlink">
<g><path style="opacity:1" fill="#fefdfd" d="M -0.5,-0.5 C 74.5,-0.5 149.5,-0.5 224.5,-0.5C 224.5,74.5 224.5,149.5 224.5,224.5C 149.5,224.5 74.5,224.5 -0.5,224.5C -0.5,149.5 -0.5,74.5 -0.5,-0.5 Z"/></g>
<g><path style="opacity:1" fill="#e53935" d="M 100.5,6.5 C 153.055,4.83701 189.888,27.837 211,75.5C 224.166,117.996 215.666,155.496 185.5,188C 151.371,217.523 113.037,224.523 70.5,209C 29.3849,189.478 8.05157,156.811 6.5,111C 8.1347,71.7076 25.468,41.7076 58.5,21C 71.7655,13.6351 85.7655,8.80181 100.5,6.5 Z"/></g>
<g><path style="opacity:1" fill="#fefafa" d="M 70.5,59.5 C 77.8333,59.5 85.1667,59.5 92.5,59.5C 92.3334,82.8357 92.5,106.169 93,129.5C 94.2409,140.576 100.408,146.242 111.5,146.5C 123.132,146.701 129.632,141.034 131,129.5C 131.5,106.169 131.667,82.8357 131.5,59.5C 138.833,59.5 146.167,59.5 153.5,59.5C 153.667,82.5024 153.5,105.502 153,128.5C 150.864,153.428 137.198,165.428 112,164.5C 86.8212,165.434 73.1545,153.434 71,128.5C 70.5,105.502 70.3334,82.5024 70.5,59.5 Z"/></g>
</svg>
 